<svg xmlns="http://www.w3.org/2000/svg" width="44" height="44" viewBox="0 0 44 44"><defs><style>.a{fill:none;opacity:0;}.b{fill:#707070;}</style></defs><g transform="translate(-678.567 -1199.221)"><rect class="a" width="44" height="44" transform="translate(678.567 1199.221)"/><path class="b" d="M699.226,1217.184h-3.75v-3.75a.75.75,0,0,0-1.5,0v3.75h-3.75a.75.75,0,0,0,0,1.5h3.75v3.75a.75.75,0,0,0,1.5,0v-3.75h3.75a.75.75,0,0,0,0-1.5Z" transform="translate(0.091 0.537)"/><path class="b" d="M687.586,1227.15a.519.519,0,0,1-.519-.518V1210.24a.52.52,0,0,1,.519-.519h15.363a.52.52,0,0,1,.519.519v10.048l1.5-1.042v-9.006a2.021,2.021,0,0,0-2.019-2.019H687.586a2.021,2.021,0,0,0-2.019,2.019v16.392a2.021,2.021,0,0,0,2.019,2.018h9.9l.543-1.5Z"/><path class="b" d="M698.638,1233.251a.747.747,0,0,1-.444-.146.985.985,0,0,1-.271-.3.808.808,0,0,1-.06-.166.749.749,0,0,1-.031-.513c0-.014.036-.133.041-.147l2.56-7.069a2.869,2.869,0,0,1,1.077-1.437l5.482-3.806,4.079-4.524a.749.749,0,0,1,.293-.2.876.876,0,0,1,.26-.083.759.759,0,0,1,.518.111,1.045,1.045,0,0,1,.209.146l3.515,3.515a.805.805,0,0,1,.233.847,1.362,1.362,0,0,1-.308.482l-4.533,4.085-3.8,5.475a3.125,3.125,0,0,1-1.446,1.086l-7.117,2.6A.734.734,0,0,1,698.638,1233.251Zm-.036-.848h0Zm13.145-15.769-3.7,4.1a.783.783,0,0,1-.129.115l-5.531,3.838a1.428,1.428,0,0,0-.533.694l-2.145,5.93,5.808-2.121a1.667,1.667,0,0,0,.723-.546l3.834-5.526a.776.776,0,0,1,.114-.13l4.164-3.75Z"/><path class="b" d="M710.742,1224.246a.744.744,0,0,1-.53-.22l-3.257-3.256a.75.75,0,0,1,1.061-1.061l3.256,3.257a.75.75,0,0,1-.53,1.28Z"/><path class="b" d="M698.595,1233.133a.75.75,0,0,1-.531-1.28l5.284-5.284a.75.75,0,0,1,1.06,1.061l-5.283,5.283A.744.744,0,0,1,698.595,1233.133Z"/></g></svg>