<svg xmlns="http://www.w3.org/2000/svg" width="44" height="44" viewBox="0 0 44 44"><defs><style>.a,.b,.c{fill:none;}.a{opacity:0;}.b,.c{stroke:#707070;stroke-width:1.5px;}.c{stroke-linecap:round;stroke-linejoin:round;}</style></defs><g transform="translate(-570.546 -1195.971)"><rect class="a" width="44" height="44" transform="translate(570.546 1195.971)"/><path class="b" d="M592.025,1220.853a2.843,2.843,0,0,1-2.36-1.256l-.035-.053-.026-.058a10.47,10.47,0,0,1-1.7-6.437,4.2,4.2,0,0,1,4.182-4.078h.072l.07,0a4.115,4.115,0,0,1,4.349,4.1,10.524,10.524,0,0,1-1.655,6.354l-.078.116a2.98,2.98,0,0,1-2.444,1.3c-.054,0-.108,0-.162,0C592.164,1220.85,592.095,1220.853,592.025,1220.853Z"/><path class="c" d="M584.546,1227.9a21.127,21.127,0,0,1,.353-3.37c.215-1.011,1.8-2.145,4.228-3.021a1.137,1.137,0,0,0,.694-.7l.028-.075"/><path class="c" d="M594.645,1220.762l.033.091a1.13,1.13,0,0,0,.7.691c1.791.61,3.97,1.768,4.217,3.021a17.693,17.693,0,0,1,.305,3.335"/></g></svg>